ply
format ascii 1.0
element vertex 130
property float x
property float y
property float z
element face 199
property list uchar int vertex_indices
end_header
-6.01496 -1.04514 0.405859 
-3.10927 -3.5632 0.556689 
-2.0255 -4.10792 -2.32391 
-3.91592 -2.56854 -0.280853 
-1.80827 3.6604 -2.10743 
-0.462838 -1.72212 -2.95952 
-0.967016 4.7137 0.385889 
-0.701649 -5.49531 0.470026 
-0.0627217 0.288605 -1.963 
0.365102 3.51033 1.25179 
-0.420117 -0.219943 1.93975 
0.0371371 3.71014 -3.5051 
0.0500372 3.06433 2.35192 
1.38452 0.695969 -2.40534 
0.502797 3.9219 0.878961 
0.571987 -2.48598 -3.61702 
0.584456 3.84512 0.892426 
0.615241 3.85606 0.885718 
0.854362 -6.32453 -1.38687 
1.18488 -0.131873 2.10674 
1.18438 -5.95396 -1.27834 
0.236966 -2.81503 2.59026 
0.516883 -1.78053 2.67096 
1.64915 -6.05698 1.70519 
3.58088 -0.690861 -2.25665 
2.50938 2.31976 1.45037 
-6.35628 0.284051 -2.6916 
-5.351 -2.47661 0.204944 
-5.18154 -1.58168 -4.01258 
-4.31636 -2.32879 -3.4379 
-2.59069 -4.60914 -2.01221 
-2.29848 -2.91256 -0.561761 
-2.49462 -5.01839 0.424915 
-2.68809 -6.53634 -2.23046 
-0.606323 -4.32009 2.65409 
-1.32962 -5.71387 0.743219 
-1.61273 1.61224 -2.03819 
-1.19219 -5.39896 -0.990301 
-1.10903 2.66747 0.853217 
0.838746 -5.576 -0.924084 
0.28358 1.86962 -3.45401 
-0.00337574 2.15577 2.56513 
0.0021863 6.87133 -1.48997 
-0.242773 5.5902 -2.03998 
0.240768 0.684876 1.28449 
0.390024 3.65146 1.1395 
0.35145 3.77823 1.02878 
-0.0386865 -5.33794 3.22411 
-0.150919 -5.36093 -2.42666 
0.652347 5.6591 -1.60168 
0.263105 -6.46616 3.6705 
1.92595 -5.9401 4.01258 
2.09094 -5.01212 -3.5252 
1.67984 -0.640749 -3.49329 
2.49486 2.19964 -2.49204 
3.29274 -4.80173 -2.57463 
3.14108 -5.57989 -1.34104 
3.24701 -3.81213 0.236218 
2.5279 3.81185 0.0515869 
2.4506 3.78433 0.560077 
2.80639 3.43098 0.810706 
2.72808 3.74973 -0.49032 
2.79498 3.74811 -0.483429 
3.38392 3.64747 -0.476123 
3.7908 0.263329 -0.530072 
-1.32804 -6.2468 -3.09393 
-1.40787 -5.82672 -1.26888 
0.0391837 -6.5024 1.31385 
0.811743 -6.4227 -2.97458 
-0.0356202 -5.75427 0.714905 
-0.062902 -5.715 0.745251 
3.35771 -5.59103 -2.77341 
-0.186937 -5.55018 -1.42614 
1.59662 -5.15675 4.01005 
-0.96444 -5.4302 0.334235 
0.39049 -5.43306 0.473102 
0.4481 -5.33999 0.284454 
-3.56852 -6.10524 1.54169 
2.37568 -5.20031 2.73408 
-3.69808 -4.31583 -0.930542 
0.762148 -5.46539 0.555774 
0.659204 -4.71861 2.85063 
2.32502 -4.24617 -1.73076 
1.33799 -4.66069 1.67722 
-4.29819 -3.82802 -0.350989 
-2.75693 -4.65356 1.62043 
3.91228 -2.51826 -1.63048 
1.19077 -3.65137 -2.75359 
-2.67925 -4.21027 0.878229 
-2.80664 -3.07198 -1.74988 
-5.25939 -2.62711 -1.82211 
3.29381 -2.33172 1.89974 
-5.42058 -1.99211 -3.91874 
1.49393 -2.28156 -3.57941 
-4.27521 -2.35437 -3.40638 
2.28337 -2.11437 -2.99318 
-1.63986 -2.16535 1.38022 
-0.665952 0.196167 -0.640765 
-1.4663 -2.48249 -1.90828 
2.10572 -1.2456 2.58276 
4.38567 -1.62288 -0.531891 
-4.37338 -1.9008 -1.90335 
4.16093 -1.07143 0.767932 
-6.82011 -0.565013 -0.818707 
3.05857 -0.0399438 1.75123 
-6.73993 -0.230148 -2.8529 
0.655208 -0.249526 -3.07535 
-6.35445 -0.141011 -0.864661 
2.12241 1.12722 0.960986 
2.58903 1.05922 -1.6659 
4.10047 2.56527 -0.787671 
2.93015 1.37585 0.363751 
1.51955 2.90386 1.87796 
-1.85934 1.78265 -0.285449 
-0.938558 2.52907 -3.2715 
4.10955 2.79697 0.236127 
2.69158 3.67617 -0.701007 
2.67657 3.64142 -0.259546 
0.242479 3.66953 1.09848 
-1.82363 4.19302 -0.986713 
0.488401 3.77246 1.04518 
1.26766 3.40175 1.63047 
2.53143 3.8392 -0.288904 
2.48687 3.91404 -0.230426 
2.35932 4.36871 1.36078 
1.36112 4.08693 -3.24341 
2.32789 4.93485 -1.71631 
2.01324 4.83501 -0.672644 
1.12601 5.26842 -0.0458435 
-0.302442 5.58094 -0.619818 
3 105 92 103 
3 103 107 26 
3 0 107 103 
3 105 26 28 
3 28 92 105 
3 107 0 3 
3 0 27 1 
3 1 27 32 
3 92 28 2 
3 79 92 30 
3 2 28 101 
3 1 32 88 
3 101 89 2 
3 2 30 92 
3 3 1 31 
3 3 31 101 
3 32 77 88 
3 85 77 34 
3 65 33 30 
3 66 30 33 
3 88 31 1 
3 77 32 35 
3 2 89 98 
3 35 34 77 
3 119 113 6 
3 31 97 98 
3 33 65 66 
3 6 113 38 
3 119 43 4 
3 21 85 34 
3 114 8 36 
3 65 2 5 
3 98 5 2 
3 11 114 4 
3 113 44 41 
3 4 43 11 
3 40 8 114 
3 97 44 113 
3 97 106 98 
3 96 22 10 
3 98 106 5 
3 22 96 21 
3 38 12 9 
3 34 47 81 
3 97 8 106 
3 65 5 93 
3 128 129 6 
3 114 11 40 
3 11 43 125 
3 49 43 42 
3 18 48 68 
3 34 81 21 
3 47 50 51 
3 5 106 15 
3 10 22 19 
3 8 13 106 
3 42 129 49 
3 65 93 48 
3 128 6 9 
3 10 19 44 
3 8 40 13 
3 51 73 47 
3 12 41 112 
3 49 125 43 
3 67 80 23 
3 47 73 81 
3 15 106 53 
3 93 87 48 
3 87 68 48 
3 40 11 125 
3 40 125 54 
3 44 112 41 
3 99 19 22 
3 126 125 49 
3 87 52 68 
3 53 106 13 
3 40 54 13 
3 22 21 99 
3 19 104 108 
3 44 19 108 
3 124 9 121 
3 128 9 58 
3 112 44 25 
3 93 15 53 
3 44 108 25 
3 23 83 78 
3 58 9 124 
3 19 99 104 
3 82 52 87 
3 95 87 93 
3 25 121 112 
3 53 13 109 
3 58 126 128 
3 82 87 86 
3 52 82 55 
3 99 21 91 
3 39 18 56 
3 54 109 13 
3 87 95 86 
3 24 93 53 
3 24 95 93 
3 56 82 39 
3 57 39 82 
3 91 83 57 
3 54 125 126 
3 121 25 60 
3 24 53 109 
3 71 68 52 
3 52 55 71 
3 111 25 108 
3 60 25 111 
3 82 56 55 
3 108 64 111 
3 54 126 63 
3 58 63 126 
3 99 91 104 
3 109 110 111 
3 64 109 111 
3 24 86 95 
3 109 64 24 
3 63 110 54 
3 60 115 63 
3 111 115 60 
3 91 57 100 
3 24 64 100 
3 91 100 102 
3 64 102 100 
3 105 103 26 
3 103 92 90 
3 26 107 101 
3 107 3 101 
3 79 103 90 
3 79 27 103 
3 28 26 101 
3 27 79 32 
3 79 90 92 
3 0 1 3 
3 101 31 89 
3 88 77 85 
3 66 79 30 
3 35 79 66 
3 97 113 36 
3 97 96 10 
3 66 65 48 
3 119 6 129 
3 119 129 43 
3 36 8 97 
3 66 48 39 
3 67 34 35 
3 44 97 10 
3 34 67 47 
3 50 47 67 
3 18 39 48 
3 9 12 121 
3 23 50 67 
3 50 23 51 
3 49 128 126 
3 18 68 56 
3 83 80 57 
3 39 57 80 
3 78 81 73 
3 83 81 78 
3 68 71 56 
3 86 57 82 
3 58 60 63 
3 108 104 64 
3 109 54 110 
3 110 115 111 
3 104 102 64 
3 115 110 63 
3 85 96 88 
3 57 86 100 
3 31 96 97 
3 113 41 38 
3 38 41 12 
3 113 4 36 
3 114 36 4 
3 113 119 4 
3 0 103 27 
3 30 2 65 
3 32 79 35 
3 31 98 89 
3 96 31 88 
3 96 85 21 
3 9 6 38 
3 129 42 43 
3 15 93 5 
3 49 129 128 
3 112 121 12 
3 83 21 81 
3 80 83 23 
3 83 91 21 
3 51 78 73 
3 23 78 51 
3 124 121 60 
3 124 60 58 
3 56 71 55 
3 102 104 91 
3 86 24 100 
